<mxfile host="app.diagrams.net" modified="2023-09-19T09:10:19.261Z" agent="Mozilla/5.0 (Windows NT 10.0; Win64; x64) AppleWebKit/537.36 (KHTML, like Gecko) Chrome/117.0.0.0 Safari/537.36 Edg/117.0.2045.31" etag="zZe1R-B2tFSv0S4A-TLZ" version="21.7.5" type="device">
  <diagram name="Page-1" id="2j2EiQx7V2a1exmJ5WXS">
    <mxGraphModel dx="1386" dy="793" grid="1" gridSize="10" guides="1" tooltips="1" connect="1" arrows="1" fold="1" page="1" pageScale="1" pageWidth="827" pageHeight="1169" math="0" shadow="0">
      <root>
        <mxCell id="0" />
        <mxCell id="1" parent="0" />
        <mxCell id="vbNFfZeSXDQqYNJUoYll-15" style="edgeStyle=orthogonalEdgeStyle;rounded=0;orthogonalLoop=1;jettySize=auto;html=1;exitX=0.5;exitY=0;exitDx=0;exitDy=0;" parent="1" source="vbNFfZeSXDQqYNJUoYll-7" target="vbNFfZeSXDQqYNJUoYll-16" edge="1">
          <mxGeometry relative="1" as="geometry">
            <mxPoint x="280" y="500" as="targetPoint" />
          </mxGeometry>
        </mxCell>
        <mxCell id="vbNFfZeSXDQqYNJUoYll-7" value="Girafe" style="swimlane;fontStyle=0;childLayout=stackLayout;horizontal=1;startSize=26;fillColor=none;horizontalStack=0;resizeParent=1;resizeParentMax=0;resizeLast=0;collapsible=1;marginBottom=0;whiteSpace=wrap;html=1;" parent="1" vertex="1">
          <mxGeometry x="190" y="570" width="180" height="52" as="geometry" />
        </mxCell>
        <mxCell id="vbNFfZeSXDQqYNJUoYll-8" value="+ deplacement : &quot;Doucement&quot;" style="text;strokeColor=none;fillColor=none;align=left;verticalAlign=top;spacingLeft=4;spacingRight=4;overflow=hidden;rotatable=0;points=[[0,0.5],[1,0.5]];portConstraint=eastwest;whiteSpace=wrap;html=1;" parent="vbNFfZeSXDQqYNJUoYll-7" vertex="1">
          <mxGeometry y="26" width="180" height="26" as="geometry" />
        </mxCell>
        <mxCell id="vbNFfZeSXDQqYNJUoYll-21" style="edgeStyle=orthogonalEdgeStyle;rounded=0;orthogonalLoop=1;jettySize=auto;html=1;exitX=0.5;exitY=0;exitDx=0;exitDy=0;entryX=-0.02;entryY=1.269;entryDx=0;entryDy=0;entryPerimeter=0;" parent="1" source="vbNFfZeSXDQqYNJUoYll-11" target="vbNFfZeSXDQqYNJUoYll-17" edge="1">
          <mxGeometry relative="1" as="geometry">
            <mxPoint x="200" y="490" as="targetPoint" />
            <Array as="points">
              <mxPoint x="90" y="410" />
              <mxPoint x="137" y="410" />
            </Array>
          </mxGeometry>
        </mxCell>
        <mxCell id="vbNFfZeSXDQqYNJUoYll-11" value="Cheval" style="swimlane;fontStyle=0;childLayout=stackLayout;horizontal=1;startSize=26;fillColor=none;horizontalStack=0;resizeParent=1;resizeParentMax=0;resizeLast=0;collapsible=1;marginBottom=0;whiteSpace=wrap;html=1;" parent="1" vertex="1">
          <mxGeometry y="570" width="180" height="52" as="geometry" />
        </mxCell>
        <mxCell id="vbNFfZeSXDQqYNJUoYll-12" value="+ nourriture : &quot;Herbe et foin&quot;" style="text;strokeColor=none;fillColor=none;align=left;verticalAlign=top;spacingLeft=4;spacingRight=4;overflow=hidden;rotatable=0;points=[[0,0.5],[1,0.5]];portConstraint=eastwest;whiteSpace=wrap;html=1;" parent="vbNFfZeSXDQqYNJUoYll-11" vertex="1">
          <mxGeometry y="26" width="180" height="26" as="geometry" />
        </mxCell>
        <mxCell id="vbNFfZeSXDQqYNJUoYll-22" style="edgeStyle=orthogonalEdgeStyle;rounded=0;orthogonalLoop=1;jettySize=auto;html=1;exitX=0.5;exitY=0;exitDx=0;exitDy=0;entryX=-0.006;entryY=0.963;entryDx=0;entryDy=0;entryPerimeter=0;" parent="1" source="vbNFfZeSXDQqYNJUoYll-16" target="kkQ9WX2OmsGRKKt787n0-2" edge="1">
          <mxGeometry relative="1" as="geometry">
            <mxPoint x="190" y="190" as="targetPoint" />
            <Array as="points">
              <mxPoint x="215" y="258" />
              <mxPoint x="90" y="258" />
              <mxPoint x="90" y="190" />
              <mxPoint x="120" y="190" />
              <mxPoint x="120" y="98" />
            </Array>
          </mxGeometry>
        </mxCell>
        <mxCell id="vbNFfZeSXDQqYNJUoYll-16" value="Herbivore" style="swimlane;fontStyle=0;childLayout=stackLayout;horizontal=1;startSize=26;fillColor=none;horizontalStack=0;resizeParent=1;resizeParentMax=0;resizeLast=0;collapsible=1;marginBottom=0;whiteSpace=wrap;html=1;" parent="1" vertex="1">
          <mxGeometry x="140" y="400" width="150" height="52" as="geometry" />
        </mxCell>
        <mxCell id="vbNFfZeSXDQqYNJUoYll-17" value="- nourriture = &quot;Végétaux&quot;" style="text;strokeColor=none;fillColor=none;align=left;verticalAlign=top;spacingLeft=4;spacingRight=4;overflow=hidden;rotatable=0;points=[[0,0.5],[1,0.5]];portConstraint=eastwest;whiteSpace=wrap;html=1;" parent="vbNFfZeSXDQqYNJUoYll-16" vertex="1">
          <mxGeometry y="26" width="150" height="26" as="geometry" />
        </mxCell>
        <mxCell id="vbNFfZeSXDQqYNJUoYll-36" style="edgeStyle=orthogonalEdgeStyle;rounded=0;orthogonalLoop=1;jettySize=auto;html=1;exitX=0.5;exitY=0;exitDx=0;exitDy=0;entryX=1.019;entryY=0;entryDx=0;entryDy=0;entryPerimeter=0;" parent="1" source="vbNFfZeSXDQqYNJUoYll-23" target="kkQ9WX2OmsGRKKt787n0-4" edge="1">
          <mxGeometry relative="1" as="geometry">
            <mxPoint x="484" y="144" as="targetPoint" />
            <Array as="points">
              <mxPoint x="414" y="223" />
              <mxPoint x="485" y="223" />
              <mxPoint x="485" y="152" />
              <mxPoint x="360" y="152" />
              <mxPoint x="360" y="108" />
            </Array>
          </mxGeometry>
        </mxCell>
        <mxCell id="vbNFfZeSXDQqYNJUoYll-23" value="Chien" style="swimlane;fontStyle=0;childLayout=stackLayout;horizontal=1;startSize=26;fillColor=none;horizontalStack=0;resizeParent=1;resizeParentMax=0;resizeLast=0;collapsible=1;marginBottom=0;whiteSpace=wrap;html=1;" parent="1" vertex="1">
          <mxGeometry x="344" y="300" width="140" height="52" as="geometry" />
        </mxCell>
        <mxCell id="vbNFfZeSXDQqYNJUoYll-24" value="- nourriture = &quot;Pâtée&quot;" style="text;strokeColor=none;fillColor=none;align=left;verticalAlign=top;spacingLeft=4;spacingRight=4;overflow=hidden;rotatable=0;points=[[0,0.5],[1,0.5]];portConstraint=eastwest;whiteSpace=wrap;html=1;" parent="vbNFfZeSXDQqYNJUoYll-23" vertex="1">
          <mxGeometry y="26" width="140" height="26" as="geometry" />
        </mxCell>
        <mxCell id="vbNFfZeSXDQqYNJUoYll-34" style="edgeStyle=orthogonalEdgeStyle;rounded=0;orthogonalLoop=1;jettySize=auto;html=1;exitX=0.5;exitY=0;exitDx=0;exitDy=0;entryX=0;entryY=0.5;entryDx=0;entryDy=0;" parent="1" source="vbNFfZeSXDQqYNJUoYll-27" target="vbNFfZeSXDQqYNJUoYll-24" edge="1">
          <mxGeometry relative="1" as="geometry" />
        </mxCell>
        <mxCell id="vbNFfZeSXDQqYNJUoYll-27" value="Labrador" style="swimlane;fontStyle=0;childLayout=stackLayout;horizontal=1;startSize=26;fillColor=none;horizontalStack=0;resizeParent=1;resizeParentMax=0;resizeLast=0;collapsible=1;marginBottom=0;whiteSpace=wrap;html=1;" parent="1" vertex="1">
          <mxGeometry x="300" y="410" width="120" height="60" as="geometry" />
        </mxCell>
        <mxCell id="vbNFfZeSXDQqYNJUoYll-28" value="- déplacement : &quot;Une fois sur deux&quot;" style="text;strokeColor=none;fillColor=none;align=left;verticalAlign=top;spacingLeft=4;spacingRight=4;overflow=hidden;rotatable=0;points=[[0,0.5],[1,0.5]];portConstraint=eastwest;whiteSpace=wrap;html=1;" parent="vbNFfZeSXDQqYNJUoYll-27" vertex="1">
          <mxGeometry y="26" width="120" height="34" as="geometry" />
        </mxCell>
        <mxCell id="vbNFfZeSXDQqYNJUoYll-35" style="edgeStyle=orthogonalEdgeStyle;rounded=0;orthogonalLoop=1;jettySize=auto;html=1;exitX=0.5;exitY=0;exitDx=0;exitDy=0;entryX=1;entryY=0.5;entryDx=0;entryDy=0;" parent="1" source="vbNFfZeSXDQqYNJUoYll-31" target="vbNFfZeSXDQqYNJUoYll-24" edge="1">
          <mxGeometry relative="1" as="geometry" />
        </mxCell>
        <mxCell id="vbNFfZeSXDQqYNJUoYll-31" value="Pinscher" style="swimlane;fontStyle=0;childLayout=stackLayout;horizontal=1;startSize=26;fillColor=none;horizontalStack=0;resizeParent=1;resizeParentMax=0;resizeLast=0;collapsible=1;marginBottom=0;whiteSpace=wrap;html=1;" parent="1" vertex="1">
          <mxGeometry x="430" y="410" width="110" height="60" as="geometry" />
        </mxCell>
        <mxCell id="vbNFfZeSXDQqYNJUoYll-32" value="- déplacement = &quot;En aboyant&quot;" style="text;strokeColor=none;fillColor=none;align=left;verticalAlign=top;spacingLeft=4;spacingRight=4;overflow=hidden;rotatable=0;points=[[0,0.5],[1,0.5]];portConstraint=eastwest;whiteSpace=wrap;html=1;" parent="vbNFfZeSXDQqYNJUoYll-31" vertex="1">
          <mxGeometry y="26" width="110" height="34" as="geometry" />
        </mxCell>
        <mxCell id="TxjXZGKuT_py0U52dC9Z-1" style="edgeStyle=orthogonalEdgeStyle;rounded=0;orthogonalLoop=1;jettySize=auto;html=1;entryX=1.038;entryY=0.259;entryDx=0;entryDy=0;entryPerimeter=0;" parent="1" source="vbNFfZeSXDQqYNJUoYll-37" target="kkQ9WX2OmsGRKKt787n0-2" edge="1">
          <mxGeometry relative="1" as="geometry">
            <mxPoint x="484" y="115" as="targetPoint" />
            <Array as="points">
              <mxPoint x="540" y="355" />
              <mxPoint x="540" y="60" />
            </Array>
          </mxGeometry>
        </mxCell>
        <mxCell id="vbNFfZeSXDQqYNJUoYll-37" value="Abeille" style="swimlane;fontStyle=0;childLayout=stackLayout;horizontal=1;startSize=26;fillColor=none;horizontalStack=0;resizeParent=1;resizeParentMax=0;resizeLast=0;collapsible=1;marginBottom=0;whiteSpace=wrap;html=1;" parent="1" vertex="1">
          <mxGeometry x="580" y="300" width="110" height="130" as="geometry" />
        </mxCell>
        <mxCell id="vbNFfZeSXDQqYNJUoYll-38" value="- déplacement = &quot;En volant et en bourdonnant&quot;&lt;br&gt;&lt;br&gt;- nourriture = &quot;Nectar&quot;" style="text;strokeColor=none;fillColor=none;align=left;verticalAlign=top;spacingLeft=4;spacingRight=4;overflow=hidden;rotatable=0;points=[[0,0.5],[1,0.5]];portConstraint=eastwest;whiteSpace=wrap;html=1;" parent="vbNFfZeSXDQqYNJUoYll-37" vertex="1">
          <mxGeometry y="26" width="110" height="104" as="geometry" />
        </mxCell>
        <mxCell id="kkQ9WX2OmsGRKKt787n0-1" value="Animal" style="swimlane;fontStyle=1;align=center;verticalAlign=top;childLayout=stackLayout;horizontal=1;startSize=26;horizontalStack=0;resizeParent=1;resizeParentMax=0;resizeLast=0;collapsible=1;marginBottom=0;whiteSpace=wrap;html=1;" vertex="1" parent="1">
          <mxGeometry x="170" y="20" width="160" height="150" as="geometry" />
        </mxCell>
        <mxCell id="kkQ9WX2OmsGRKKt787n0-2" value="- espèce : String&lt;br&gt;- nourriture : String&lt;br&gt;- deplacement : String" style="text;strokeColor=none;fillColor=none;align=left;verticalAlign=top;spacingLeft=4;spacingRight=4;overflow=hidden;rotatable=0;points=[[0,0.5],[1,0.5]];portConstraint=eastwest;whiteSpace=wrap;html=1;" vertex="1" parent="kkQ9WX2OmsGRKKt787n0-1">
          <mxGeometry y="26" width="160" height="54" as="geometry" />
        </mxCell>
        <mxCell id="kkQ9WX2OmsGRKKt787n0-3" value="" style="line;strokeWidth=1;fillColor=none;align=left;verticalAlign=middle;spacingTop=-1;spacingLeft=3;spacingRight=3;rotatable=0;labelPosition=right;points=[];portConstraint=eastwest;strokeColor=inherit;" vertex="1" parent="kkQ9WX2OmsGRKKt787n0-1">
          <mxGeometry y="80" width="160" height="8" as="geometry" />
        </mxCell>
        <mxCell id="kkQ9WX2OmsGRKKt787n0-4" value="+ bruitCri(): String&lt;br&gt;+ manger() : booléen&lt;br&gt;+ seDeplacer : booléen" style="text;strokeColor=none;fillColor=none;align=left;verticalAlign=top;spacingLeft=4;spacingRight=4;overflow=hidden;rotatable=0;points=[[0,0.5],[1,0.5]];portConstraint=eastwest;whiteSpace=wrap;html=1;" vertex="1" parent="kkQ9WX2OmsGRKKt787n0-1">
          <mxGeometry y="88" width="160" height="62" as="geometry" />
        </mxCell>
      </root>
    </mxGraphModel>
  </diagram>
</mxfile>
